<?xml version="1.0" ?>
<!DOCTYPE svg  PUBLIC '-//W3C//DTD SVG 1.1//EN'  'http://www.w3.org/Graphics/SVG/1.1/DTD/svg11.dtd'>
<!-- Uploaded to: SVG Repo, www.svgrepo.com, Generator: SVG Repo Mixer Tools -->
<svg width="800px" height="800px" viewBox="0 0 32 32" enable-background="new 0 0 32 32" version="1.1" xml:space="preserve" xmlns="http://www.w3.org/2000/svg" xmlns:xlink="http://www.w3.org/1999/xlink">
<g id="Security02"/>
<g id="Security03"/>
<g id="Security04"/>
<g id="Security05"/>
<g id="Security06"/>
<g id="Security07"/>
<g id="Security08"/>
<g id="Security09"/>
<g id="Security10"/>
<g id="Security11"/>
<g id="Security12"/>
<g id="Security13"/>
<g id="Security14"/>
<g id="Security15"/>
<g id="Security16"/>
<g id="Security17">
<path d="M30.39,7.08l-14-6c-0.25-0.11-0.53-0.11-0.78,0l-14,6C1.24,7.24,1,7.6,1,8c0,0.15,0.07,9.9,4.25,16.66   c0.41,0.67,0.86,1.31,1.36,1.91C8.79,29.18,11.81,31,16,31s7.21-1.82,9.39-4.43c0.5-0.6,0.95-1.2401,1.36-1.91   C30.93,17.9,31,8.15,31,8C31,7.6,30.76,7.24,30.39,7.08z" fill="#2197F3"/>
<g>
<path d="M26.75,24.66c-0.41,0.67-0.86,1.31-1.36,1.91C23.21,29.18,20.19,31,16,31s-7.21-1.82-9.39-4.43    c-0.5-0.6-0.95-1.2401-1.36-1.91C7.22,20.71,11.3,18,16,18S24.78,20.71,26.75,24.66z" fill="#3F51B5"/>
</g>
<g>
<circle cx="16" cy="12" fill="#FFC10A" r="5"/>
</g>
</g>
<g id="Security18"/>
<g id="Security19"/>
<g id="Security20"/>
<g id="Security21"/>
</svg>