<?xml version="1.0" encoding="iso-8859-1"?>
<!-- Uploaded to: SVG Repo, www.svgrepo.com, Generator: SVG Repo Mixer Tools -->
<svg height="800px" width="800px" version="1.1" id="Layer_1" xmlns="http://www.w3.org/2000/svg" xmlns:xlink="http://www.w3.org/1999/xlink" 
	 viewBox="0 0 512 512" xml:space="preserve">
<circle style="fill:#FEE187;" cx="256" cy="256" r="256"/>
<g>
	<path style="fill:#FFC61B;" d="M119.356,313.008l-0.119-0.119C119.196,312.93,119.251,312.97,119.356,313.008z"/>
	<path style="fill:#FFC61B;" d="M119.356,313.008l192.798,192.798c90.814-20.327,163.394-88.897,189.443-177.405l-86.999-86.999
		l-34.478-45.218h-95.329l6.958,6.958H119.237l30.455,45.963l63.712,63.712C165.681,313.52,121.877,313.906,119.356,313.008z"/>
</g>
<g>
	<path style="fill:#43739B;" d="M411.57,307.574l-41.948-41.948c-4.037-4.041-10.59-4.041-14.626,0
		c-4.041,4.039-4.041,10.588,0,14.626l23.569,23.571H151.314c-18.32,0-33.225-14.905-33.225-33.225
		c0-5.711-4.632-10.343-10.343-10.343c-5.711,0-10.343,4.632-10.343,10.343c0,29.727,24.185,53.912,53.912,53.912h228.692
		l-25.01,25.009c-4.041,4.041-4.041,10.59-0.002,14.627c2.02,2.02,4.667,3.031,7.315,3.031c2.646,0,5.294-1.01,7.313-3.029
		l41.948-41.946c1.941-1.941,3.031-4.57,3.031-7.315C414.599,312.144,413.512,309.513,411.57,307.574z"/>
	<path style="fill:#43739B;" d="M360.688,187.49H131.996l25.01-25.009c4.041-4.041,4.041-10.59,0.002-14.627
		c-4.039-4.037-10.59-4.041-14.627-0.002l-41.948,41.946c-1.941,1.941-3.031,4.57-3.031,7.315c0,2.744,1.09,5.373,3.031,7.315
		l41.948,41.946c2.019,2.019,4.667,3.029,7.313,3.029c2.646,0,5.294-1.01,7.315-3.031c4.039-4.039,4.039-10.588-0.002-14.627
		l-23.569-23.568h227.25c18.32,0,33.225,14.905,33.225,33.225c0,5.711,4.632,10.343,10.343,10.343s10.343-4.632,10.343-10.343
		C414.599,211.675,390.415,187.49,360.688,187.49z"/>
</g>
</svg>